PathFileType	4	(X/Y/Z)	4_coords_data.trc
DataRate	CameraRate	NumFrames	NumMarkers	Units	OrigDataRate	OrigDataStartFrame	OrigNumFrames
30.0	30.0	4	21	m	30.0	1	47
Frame#	Time	THUMB_TIP	THUMB_IP	THUMB_MCP	THUMB_CMC	INDEX_TIP	INDEX_DIP	INDEX_PIP	INDEX_MCP	MIDDLE_TIP	MIDDLE_DIP	MIDDLE_PIP	MIDDLE_MCP	RING_TIP	RING_DIP	RING_PIP	RING_MCP	PINKY_TIP	PINKY_DIP	PINKY_PIP	PINKY_MCP	WRIST
X1	Y1	Z1	X2	Y2	Z2	X3	Y3	Z3	X4	Y4	Z4	X5	Y5	Z5	X6	Y6	Z6	X7	Y7	Z7	X8	Y8	Z8	X9	Y9	Z9	X10	Y10	Z10	X11	Y11	Z11	X12	Y12	Z12	X13	Y13	Z13	X14	Y14	Z14	X15	Y15	Z15	X16	Y16	Z16	X17	Y17	Z17	X18	Y18	Z18	X19	Y19	Z19	X20	Y20	Z20	X21	Y21	Z21
0	-2.749317978547796e-18	0.5414417629159569	-0.0226092695162885	-0.13590076792155803	0.5286446697000752	-0.014042159129461496	-0.11884676473040195	0.500393333883683	-0.00476924530556988	-0.10964377098900896	0.47043588055055097	-0.015824608490764946	-0.07849541734653454	0.5526755273253414	0.03434026779098942	-0.166764195904808	0.5413467920513714	0.03303957130441204	-0.15269408766989695	0.5264876345806586	0.0317030853448671	-0.13245973377508474	0.5051418805216206	0.03533858219497821	-0.09578851835612301	0.5074392300602093	-0.007745513721121089	-0.1035029855158755	0.5193832524782375	-0.004376859552614132	-0.11669360709223187	0.5355200388794035	0.019802147855969454	-0.11878866684765854	0.5194609080342957	0.028914725279423292	-0.07810435574127172	0.5186317978521879	-0.008581020706549758	-0.0984504767449717	0.5315730595405432	-0.00758218648264819	-0.11096151491559009	0.5522874273433588	0.003868207127713408	-0.10321661777634583	0.5316916499922657	0.012830617812980005	-0.06959802196966719	0.6063695966477395	0.0009752278924008984	-0.06670762198304131	0.5894842532888381	-0.0017844377518987375	-0.06722668381334235	0.5686357745757444	-0.0041000669331223705	-0.06811596208517173	0.5326456786036698	-0.005858969392600999	-0.0665339680716242	0.4622830810018609	-0.023011742144276814	-0.051989820119430985
1	0.03333333333333339	0.5415987418339143	-0.022186665082535306	-0.13592873480432943	0.5286045742053741	-0.013322621529169743	-0.11917820228964687	0.5001072129813227	-0.004688223658708246	-0.11011356899973967	0.4707482193571269	-0.015289389351112792	-0.07824579877123744	0.5521680672254059	0.035258065284688334	-0.16662127831385004	0.5409543737937197	0.03379745171233073	-0.15247491172689903	0.5261064195220952	0.032391857511475775	-0.13223701677978877	0.5047946175623961	0.035789380262499115	-0.09552325872661688	0.5069374988818567	-0.007317463441992578	-0.10344017822166868	0.519012315163871	-0.0036928347305411613	-0.11644251949006046	0.5353817355695446	0.02032283467835838	-0.11861029448409643	0.519059154523875	0.029394760647187157	-0.07802185489566626	0.5183018447853549	-0.01047006356275193	-0.09807044620201416	0.5314227466503851	-0.008013627971612092	-0.11018687547943873	0.5515688019424498	0.004726975715168447	-0.10297622690490199	0.5313061187472319	0.013767433600345713	-0.06917660227745137	0.6062294961160521	0.001994017040841456	-0.06651644545202368	0.5893756034087341	-0.0009455329207368468	-0.06706902724107616	0.5684994637749878	-0.0030132335208774563	-0.06791957249002722	0.5325391698767477	-0.005421405776182553	-0.06652622395467583	0.4622830810018609	-0.023011742144276814	-0.051989820119430985
2	0.06666666666666676	0.5416824893362778	-0.021786035296758488	-0.13595071724507718	0.528551713932568	-0.01270513859948652	-0.11942437304949666	0.4998720995311423	-0.004602848041598495	-0.11044369348160754	0.47098306806571993	-0.014869050784624749	-0.07804124076226976	0.5517316669337962	0.03602444680309902	-0.16650874320116643	0.5406083362909765	0.03443675269866164	-0.15230484434059843	0.5257685841817752	0.03296309697614719	-0.132065774966021	0.5044775650723063	0.03616492213379241	-0.09532238215942102	0.5065400412761589	-0.006993481718803984	-0.10339303426196461	0.5186933689464911	-0.003111994369004112	-0.11624724300816452	0.5352359438788061	0.020779652630924406	-0.11847029681757953	0.5187058906233909	0.029807324216422626	-0.07795602271427704	0.5181670860978612	-0.011755244980124813	-0.0977806432014593	0.531337444428259	-0.008253589374361603	-0.10958234093812186	0.5509829393465324	0.005471994943396563	-0.10281160659447736	0.5309732397203629	0.014526882129934693	-0.06886544668043776	0.6060904726734395	0.0028364007268140146	-0.06642159211870435	0.5892622976225269	-0.00024395662412701746	-0.06699073449662585	0.5683680899732699	-0.002137388051785205	-0.06780253689776222	0.5324387459727014	-0.005024317110340792	-0.0665253010935069	0.4622830810018609	-0.023011742144277036	-0.051989820119430985
3	0.10000000000000014	0.5417154135123617	-0.02142679638136502	-0.1359836301613374	0.5284951291071776	-0.01219368283098099	-0.11961372807208354	0.4996882174897075	-0.004517656259069636	-0.11066607703225317	0.4711478097387026	-0.014555124550452048	-0.07788522353961391	0.5513620827742889	0.0366518413192114	-0.16642628119053515	0.5403065264954608	0.03496719461059605	-0.15218069798615852	0.5254723394239907	0.03342805262657644	-0.13194242313671406	0.5041908204283715	0.0364719000099234	-0.09518010497876883	0.506232250137771	-0.006759470074529039	-0.10336039521085016	0.5184210565764398	-0.0026263764524079303	-0.11610208013520174	0.5350859167324524	0.021176269378971657	-0.11836615553289992	0.5183984597110897	0.030158111628572404	-0.07790625922849187	0.5181246401300365	-0.012551920491741697	-0.09756148240248524	0.5312771885861055	-0.008331444836514601	-0.10914587079179577	0.5505183237633172	0.006111586101343436	-0.1027148869308036	0.5306921157240635	0.0151308345187956	-0.06865177687360935	0.6059606655184065	0.0035375416279257443	-0.06640702260053805	0.5891527276420329	0.0003489345588476578	-0.06697799484416195	0.5682475805418316	-0.0014369425638067757	-0.06775096743211129	0.5323457384182806	-0.004670149084530006	-0.06653131226363873	0.4622830810018609	-0.023011742144277036	-0.051989820119430985
